# AST/ASF file generated using VICON BodyLanguage
# -----------------------------------------------
:version 1.10
:name VICON
:units
  mass 1.0
  length 0.45
  angle deg
:documentation
   .ast/.asf automatically generated from VICON data using
   VICON BodyBuilder and BodyLanguage model FoxedUp or BRILLIANT.MOD
:root
   order TX TY TZ RX RY RZ
   axis XYZ
   position 0 0 0  
   orientation 0 0 0 
:bonedata
  begin
     id 1 
     name lhipjoint
     direction 0.535335 -0.74333 0.401095 
     length 2.04549 
     axis 0 0 0  XYZ
  end
  begin
     id 2 
     name lfemur
     direction 0.34202 -0.939693 0  
     length 6.95643  
     axis 0 0 20  XYZ
    dof rx ry rz
    limits (-160.0 20.0)
           (-70.0 70.0)
           (-60.0 70.0)
  end
  begin
     id 3 
     name ltibia
     direction 0.34192 -0.939729 0   
     length 5.55969   
     axis 0 0 20   XYZ
    dof rx
    limits (-10.0 170.0)
  end
  begin
     id 4 
     name lfoot
     direction 0.216943 -0.596046 0.773088   
     length 2.27918   
     axis -90 7.62852e-016 20   XYZ
    dof rx rz
    limits (-45.0 90.0)
           (-70.0 20.0)
  end
  begin
     id 5 
     name ltoes
     direction 1.53519e-011 -4.21748e-011 1   
     length 1.05562   
     axis -90 7.62852e-016 20   XYZ
    dof rx
    limits (-90.0 20.0)
  end
  begin
     id 6 
     name rhipjoint
     direction -0.576368 -0.719173 0.38806   
     length 2.1142  
     axis 0 0 0  XYZ 
  end
  begin
     id 7 
     name rfemur
     direction -0.34202 -0.939693 0   
     length 7.07928   
     axis 0 0 -20   XYZ
    dof rx ry rz
    limits (-160.0 20.0)
           (-70.0 70.0)
           (-70.0 60.0)
  end
  begin
     id 8 
     name rtibia
     direction -0.34202 -0.939693 0   
     length 5.79974   
     axis 0 0 -20   XYZ
    dof rx
    limits (-10.0 170.0)
 end
 begin
     id 9 
     name rfoot
     direction -0.189288 -0.520065 0.832888   
     length 2.42173  
     axis -90 -7.62852e-016 -20   XYZ
    dof rx rz
    limits (-45.0 90.0)
           (-20.0 70.0)
  end
  begin
     id 10 
     name rtoes
     direction -1.53574e-011 -4.21658e-011 1   
     length 1.14469   
     axis -90 -7.62852e-016 -20   XYZ
    dof rx
    limits (-90.0 20.0)
  end
  begin
     id 11 
     name lowerback
     direction -0.00135702 0.993803 0.111144   
     length 1.91308   
     axis 0 0 0   XYZ
    dof rx ry rz
    limits (-20.0 45.0)
           (-30.0 30.0)
           (-30.0 30.0)
  end
  begin
     id 12 
     name upperback
     direction -0.0056745 0.999813 0.0184631   
     length 1.9212   
     axis 0 0 0   XYZ
    dof rx ry rz
    limits (-20.0 45.0)
           (-30.0 30.0)
           (-30.0 30.0)
  end
  begin
     id 13 
     name thorax
     direction -0.00733434 0.999426 -0.0330788   
     length 1.94196   
     axis 0 0 0   XYZ
    dof rx ry rz
    limits (-20.0 45.0)
           (-30.0 30.0)
           (-30.0 30.0)
  end
  begin
     id 14 
     name lowerneck
     direction 0.0563074 0.996944 -0.0541571   
     length 2.34257   
     axis 0 0 0   XYZ
    dof rx ry rz
    limits (-20.0 45.0)
           (-30.0 30.0)
           (-30.0 30.0)
  end
  begin
     id 15 
     name upperneck
     direction -0.0544519 0.976166 -0.210085   
     length 2.32506   
     axis 0 0 0   XYZ
    dof rx ry rz
    limits (-20.0 45.0)
           (-30.0 30.0)
           (-30.0 30.0)
  end
  begin
     id 16
     name head
     direction -0.0226035 0.997615 -0.0652205  
     length 2.3648  
     axis 0 0 0   XYZ
    dof rx ry rz
    limits (-20.0 45.0)
           (-30.0 30.0)
           (-30.0 30.0)
  end
  begin
     id 17 
     name lclavicle
     direction 0.92109 0.381297 -0.0787716  
     length 4.0487  
     axis 0 0 0   XYZ
    dof ry rz
    limits (-20.0 10.0)
           (0.0 20.0)
  end
  begin
     id 18 
     name lhumerus
     direction 1 -4.48986e-011 3.56724e-027   
     length 4.94991   
     axis 180 -30 -90   XYZ
    dof rx ry rz
    limits (-60.0 90.0)
           (-90.0 90.0)
           (-90.0 90.0)
  end
  begin
     id 19
     name lradius
     direction 1 -4.48981e-011 8.62147e-027   
     length 2.7606   
     axis 180 -30 -90   XYZ
    dof rx
    limits (-10.0 170.0)
  end
  begin
     id 20
     name lwrist
     direction 1 -4.48989e-011 1.59799e-026   
     length 1.3803   
     axis -1.17785e-014 90 90   XYZ
    dof ry
    limits (-180.0 0.0)
 end
  begin
     id 21 
     name lhand
     direction 1 -4.48896e-011 3.19599e-026   
     length 0.843936   
     axis -2.03931e-014 90 90   XYZ
    dof rx rz
    limits (-90.0 90.0)
           (-45.0 45.0)
  end
  begin
     id 22 
     name lfingers
     direction 1 -4.48887e-011 6.39197e-026   
     length 0.680403   
     axis -4.07862e-014 90 90   XYZ
    dof rx
    limits (0.0 90.0)
  end
  begin
     id 23
     name lthumb
     direction 0.707107 -6.348e-011 0.707107   
     length 0.976926   
     axis -90 45 2.85299e-015   XYZ
    dof rx rz
    limits (-45.0 45.0)
           (-45.0 45.0)
  end
  begin
     id 24 
     name rclavicle
     direction -0.951104 0.307692 -0.026953   
     length 4.21801  
     axis 0 0 0   XYZ 
    dof ry rz
    limits (-10.0 20.0)
           (-20.0 0.0)
  end
  begin
     id 25 
     name rhumerus
     direction -1 -4.4896e-011 -1.8171e-018  
     length 4.32982   
     axis 180 30 90   XYZ
    dof rx ry rz
    limits (-90.0 60.0)
           (-90.0 90.0)
           (-90.0 90.0)
  end
  begin
     id 26 
     name rradius
     direction -1 -4.48959e-011 8.25165e-027   
     length 3.20057   
     axis 180 30 90   XYZ
    dof rx
    limits (-10.0 170.0)
  end
  begin
     id 27 
     name rwrist
     direction -1 -4.48997e-011 1.59799e-026   
     length 1.60029   
     axis -1.17785e-014 -90 -90   XYZ
    dof ry
    limits (-180.0 0.0)
  end
  begin
     id 28
     name rhand
     direction -1 -4.49023e-011 3.19599e-026   
     length 0.960433   
     axis -2.03931e-014 -90 -90   XYZ
    dof rx rz
    limits (-90.0 90.0)
           (-45.0 45.0)
  end
  begin
     id 29
     name rfingers
     direction -1 -4.48802e-011 6.39197e-026   
     length 0.774326   
     axis -4.07862e-014 -90 -90   XYZ
    dof rx
    limits (0.0 90.0)
  end
  begin
     id 30
     name rthumb
     direction -0.707107 -6.34876e-011 0.707107   
     length 1.11178   
     axis -90 -45 -2.85299e-015   XYZ
    dof rx rz
    limits (-45.0 45.0)
           (-45.0 45.0)
  end
:hierarchy
  begin
    root lhipjoint rhipjoint lowerback
    lhipjoint lfemur
    lfemur ltibia
    ltibia lfoot
    lfoot ltoes
    rhipjoint rfemur
    rfemur rtibia
    rtibia rfoot
    rfoot rtoes
    lowerback upperback
    upperback thorax
    thorax lowerneck lclavicle rclavicle
    lowerneck upperneck
    upperneck head
    lclavicle lhumerus
    lhumerus lradius
    lradius lwrist
    lwrist lhand lthumb
    lhand lfingers
    rclavicle rhumerus
    rhumerus rradius
    rradius rwrist
    rwrist rhand rthumb
    rhand rfingers
end

#!OML:ASF C:\KaitlinTest1\Natural Motions\Nikki\Session 2\Nikki.ASF
:FULLY-SPECIFIED
:DEGREES
188
root -18.8711 16.6266 5.01452 -152.972 85.794 -162.844
lowerback -13.3253 -1.72907 -0.0868546
upperback -4.03866 -2.07335 -0.500099
thorax 3.20336 -0.95192 -0.79534
lowerneck -1.85884 1.54825 8.3783
upperneck 27.3065 3.73817 -5.39014
head 9.0722 2.49741 -2.93046
rclavicle 4.02539e-015 -4.77083e-015
rhumerus -42.1716 -22.0587 -79.2585
rradius 18.4378
rwrist 28.8796
rhand -35.8001 3.08339
rfingers 7.12502
rthumb -8.91693 -26.7082
lclavicle 4.02539e-015 -4.77083e-015
lhumerus -42.1334 16.0224 80.5309
lradius 23.9993
lwrist -39.9815
lhand -32.8419 3.67737
lfingers 7.12502
lthumb -6.06154 33.5707
rfemur -7.47239 -16.4353 20.9396
rtibia 10.8506
rfoot -10.5245 11.6757
rtoes 5.40694e-014
lfemur -10.0005 12.0796 -17.9081
ltibia 10.1287
lfoot -2.38505 -16.7696
ltoes 3.02153e-014
189
root -18.8729 16.6274 5.01425 -153.01 85.7872 -162.899
lowerback -13.3273 -1.73446 -0.104042
upperback -4.0476 -2.07827 -0.488216
thorax 3.19613 -0.95418 -0.773943
lowerneck -1.86148 1.54011 8.39367
upperneck 27.3055 3.73731 -5.4408
head 9.07304 2.49374 -2.95088
rclavicle -8.57259e-015 0
rhumerus -42.1651 -22.048 -79.243
rradius 18.4221
rwrist 28.9043
rhand -35.8745 3.17055
rfingers 7.12502
rthumb -8.98874 -26.618
lclavicle -8.57259e-015 0
lhumerus -42.1331 16.0904 80.4853
lradius 23.962
lwrist -40.1283
lhand -32.8734 3.618
lfingers 7.12502
lthumb -6.09196 33.5104
rfemur -7.49583 -16.4562 20.9482
rtibia 10.8453
rfoot -10.4904 11.6686
rtoes 5.08889e-014
lfemur -10.0318 12.0801 -17.9199
ltibia 10.1314
lfoot -2.38931 -16.7594
ltoes -1.27222e-014
190
root -18.8716 16.6267 5.01345 -152.979 85.8113 -162.844
lowerback -13.3314 -1.72652 -0.0975584
upperback -4.02996 -2.06935 -0.490594
thorax 3.21657 -0.950038 -0.779144
lowerneck -1.91208 1.54252 8.38065
upperneck 27.3605 3.74261 -5.44273
head 9.10208 2.49526 -2.94891
rclavicle 8.84592e-015 1.19271e-014
rhumerus -42.1724 -22.0271 -79.2539
rradius 18.434
rwrist 28.9117
rhand -35.7645 3.00158
rfingers 7.12502
rthumb -8.88256 -26.7915
lclavicle 8.84592e-015 1.19271e-014
lhumerus -42.1339 16.0805 80.5129
lradius 24.0299
lwrist -40.0018
lhand -32.7241 3.65281
lfingers 7.12502
lthumb -5.94783 33.5493
rfemur -7.46572 -16.4593 20.9276
rtibia 10.8433
rfoot -10.5098 11.7085
rtoes 1.66979e-014
lfemur -9.98721 12.0738 -17.9208
ltibia 10.1254
lfoot -2.38563 -16.7487
ltoes 3.49861e-014
191
root -18.8721 16.6282 5.01325 -153.239 85.8323 -163.12
lowerback -13.3569 -1.71462 -0.119897
upperback -4.02838 -2.0492 -0.513587
thorax 3.23222 -0.939896 -0.788167
lowerneck -1.91048 1.53743 8.39945
upperneck 27.344 3.72482 -5.41613
head 9.09473 2.49067 -2.94426
rclavicle 2.1419e-014 5.96354e-015
rhumerus -42.159 -22.0516 -79.2913
rradius 18.4398
rwrist 28.8289
rhand -35.8621 3.14788
rfingers 7.12502
rthumb -8.97672 -26.6411
lclavicle 2.1419e-014 5.96354e-015
lhumerus -42.1068 15.9841 80.5477
lradius 24.0242
lwrist -39.9016
lhand -32.7685 3.69926
lfingers 7.12502
lthumb -5.99075 33.5946
rfemur -7.48323 -16.4288 20.899
rtibia 10.8406
rfoot -10.5043 11.6988
rtoes 6.36111e-015
lfemur -9.99803 12.0616 -17.9563
ltibia 10.1102
lfoot -2.3899 -16.723
ltoes 9.54166e-015
192
root -18.8728 16.6285 5.01292 -153.114 85.8221 -162.966
lowerback -13.3167 -1.71597 -0.100633
upperback -4.03294 -2.05453 -0.503513
thorax 3.20527 -0.942765 -0.788035
lowerneck -1.8683 1.54047 8.40294
upperneck 27.3182 3.73824 -5.44281
head 9.07912 2.49529 -2.95314
rclavicle -1.64743e-014 -5.1684e-015
rhumerus -42.2104 -22.1563 -79.1669
rradius 18.3871
rwrist 29.0847
rhand -35.9272 3.31449
rfingers 7.12502
rthumb -9.03958 -26.4718
lclavicle -1.64743e-014 -5.1684e-015
lhumerus -42.1214 15.9752 80.5695
lradius 24.0077
lwrist -39.8006
lhand -32.855 3.64591
lfingers 7.12502
lthumb -6.07418 33.5388
rfemur -7.44997 -16.444 20.9075
rtibia 10.831
rfoot -10.5016 11.7056
rtoes 2.62396e-014
lfemur -9.96622 12.0595 -17.9339
ltibia 10.1029
lfoot -2.38405 -16.7298
ltoes -4.77083e-015
193
root -18.873 16.6281 5.01229 -152.987 85.8123 -162.816
lowerback -13.3064 -1.71392 -0.0821413
upperback -4.0182 -2.05518 -0.502566
thorax 3.21449 -0.943403 -0.797539
lowerneck -1.88855 1.5428 8.41974
upperneck 27.3279 3.74315 -5.46214
head 9.0873 2.49716 -2.96231
rclavicle 2.52457e-014 1.39149e-014
rhumerus -42.2216 -22.274 -79.0958
rradius 18.3781
rwrist 29.2488
rhand -35.8729 3.26868
rfingers 7.12502
rthumb -8.98716 -26.5199
lclavicle 2.52457e-014 1.39149e-014
lhumerus -42.1064 15.9057 80.6165
lradius 24.0512
lwrist -39.6096
lhand -32.7661 3.67529
lfingers 7.12502
lthumb -5.98839 33.5707
rfemur -7.41839 -16.403 20.9123
rtibia 10.8229
rfoot -10.5001 11.6563
rtoes 9.38264e-014
lfemur -9.93947 12.0683 -17.9147
ltibia 10.0852
lfoot -2.37222 -16.7502
ltoes 5.725e-014
194
root -18.8734 16.6283 5.01187 -152.824 85.8207 -162.653
lowerback -13.321 -1.70501 -0.065535
upperback -4.01585 -2.04588 -0.493959
thorax 3.22464 -0.938727 -0.796939
lowerneck -1.8812 1.54949 8.37434
upperneck 27.3237 3.75129 -5.43402
head 9.08376 2.49927 -2.94392
rclavicle 1.08338e-014 7.95139e-016
rhumerus -42.2144 -22.2508 -79.096
rradius 18.3695
rwrist 29.2221
rhand -35.8908 3.22089
rfingers 7.12502
rthumb -9.00442 -26.5669
lclavicle 1.08338e-014 7.95139e-016
lhumerus -42.1068 15.9582 80.592
lradius 24.0433
lwrist -39.7402
lhand -32.7838 3.64433
lfingers 7.12502
lthumb -6.00551 33.5392
rfemur -7.42093 -16.4422 20.9218
rtibia 10.8151
rfoot -10.4712 11.7065
rtoes -8.90555e-014
lfemur -9.93878 12.0741 -17.9099
ltibia 10.0898
lfoot -2.38294 -16.7339
ltoes -4.29375e-014
195
root -18.8744 16.6288 5.01143 -153.032 85.8101 -162.884
lowerback -13.3409 -1.71246 -0.0696842
upperback -4.02512 -2.05409 -0.499527
thorax 3.22557 -0.942483 -0.80212
lowerneck -1.8703 1.55209 8.37199
upperneck 27.338 3.75647 -5.42594
head 9.0871 2.50317 -2.94045
rclavicle 2.01269e-014 1.19271e-015
rhumerus -42.2435 -22.2705 -79.083
rradius 18.3894
rwrist 29.1924
rhand -35.8805 3.25226
rfingers 7.12502
rthumb -8.99452 -26.536
lclavicle 2.01269e-014 1.19271e-015
lhumerus -42.1501 16.2124 80.369
lradius 24.0009
lwrist -40.3857
lhand -32.5179 3.60836
lfingers 7.12502
lthumb -5.74876 33.5104
rfemur -7.4498 -16.4299 20.9105
rtibia 10.8204
rfoot -10.4831 11.6798
rtoes 0
lfemur -9.96243 12.0781 -17.9314
ltibia 10.0741
lfoot -2.35624 -16.7559
ltoes 1.27222e-014
196
root -18.8748 16.6282 5.01049 -153.23 85.848 -163.072
lowerback -13.3191 -1.70908 -0.0980224
upperback -4.02345 -2.04646 -0.498649
thorax 3.21668 -0.938927 -0.783429
lowerneck -1.85103 1.56543 8.35269
upperneck 27.2903 3.77132 -5.41408
head 9.06727 2.50803 -2.93144
rclavicle -9.46712e-015 -7.95139e-015
rhumerus -42.2311 -22.1755 -79.127
rradius 18.4121
rwrist 29.1208
rhand -35.8635 3.19894
rfingers 7.12502
rthumb -8.9781 -26.59
lclavicle -9.46712e-015 -7.95139e-015
lhumerus -42.1365 16.2054 80.4017
lradius 24.0119
lwrist -40.2899
lhand -32.5337 3.61337
lfingers 7.12502
lthumb -5.76399 33.515
rfemur -7.4461 -16.4368 20.8765
rtibia 10.834
rfoot -10.5066 11.7128
rtoes -2.54444e-014
lfemur -9.94135 12.0936 -17.964
ltibia 10.0519
lfoot -2.35119 -16.7402
ltoes 2.70347e-014
